<svg xmlns="http://www.w3.org/2000/svg" viewBox="0 0 512 512" role="img" aria-label="Controle Financeiro">
  <rect width="512" height="512" rx="96" fill="#0d8b72"/>
  <path fill="#f7f0e5" d="M128 156c0-24.3 19.7-44 44-44h168c24.3 0 44 19.7 44 44v200c0 24.3-19.7 44-44 44H172c-24.3 0-44-19.7-44-44V156Z"/>
  <path fill="#0d8b72" d="M172 172c0-8.8 7.2-16 16-16h136c8.8 0 16 7.2 16 16v42c0 8.8-7.2 16-16 16H188c-8.8 0-16-7.2-16-16v-42Z"/>
  <path fill="#153129" d="M190 272h132c8.8 0 16 7.2 16 16s-7.2 16-16 16H190c-8.8 0-16-7.2-16-16s7.2-16 16-16Zm0 58h88c8.8 0 16 7.2 16 16s-7.2 16-16 16h-88c-8.8 0-16-7.2-16-16s7.2-16 16-16Z"/>
  <circle cx="340" cy="346" r="24" fill="#d69634"/>
</svg>
